<svg width="823" height="316" viewBox="0 0 823 316" fill="none" xmlns="http://www.w3.org/2000/svg">
<path d="M10.368 30.72H29.088L64.8 79.104L99.648 30.72H118.368V138H98.64V65.136L65.52 109.2H63.216L29.952 63.696V138H10.368V30.72ZM136.019 30.72H207.299V48H155.603V75.504H204.419V92.784H155.603V120.72H207.299V138H136.019V30.72ZM237.788 48H209.996V30.72H284.876V48H257.516V138H237.788V48ZM314.999 30.72H340.343L377.351 138H356.039L348.407 114.96H306.935L299.159 138H277.991L314.999 30.72ZM342.791 97.68L327.671 52.464L312.551 97.68H342.791ZM371.158 30.72H392.47L419.83 113.232L447.046 30.72H468.358L431.062 138H408.598L371.158 30.72ZM477.468 30.72H548.748V48H497.052V75.504H545.868V92.784H497.052V120.72H548.748V138H477.468V30.72ZM560.229 30.72H600.117C607.413 30.72 613.893 32.064 619.557 34.752C625.221 37.344 629.589 41.184 632.661 46.272C635.829 51.36 637.413 57.456 637.413 64.56C637.413 71.856 635.685 78.144 632.229 83.424C628.773 88.608 624.021 92.448 617.973 94.944L642.597 138H620.421L598.245 98.4H579.813V138H560.229V30.72ZM600.405 81.12C605.685 81.12 609.909 79.632 613.077 76.656C616.245 73.584 617.829 69.552 617.829 64.56C617.829 59.568 616.245 55.584 613.077 52.608C609.909 49.536 605.685 48 600.405 48H579.813V81.12H600.405ZM690.856 139.728C682.408 139.728 675.064 138.144 668.824 134.976C662.68 131.808 657.88 127.824 654.424 123.024C650.968 118.128 648.76 113.04 647.8 107.76L666.232 102.864C667.672 108.72 670.552 113.28 674.872 116.544C679.192 119.808 684.616 121.44 691.144 121.44C696.136 121.44 700.168 120.192 703.24 117.696C706.408 115.2 707.992 112.224 707.992 108.768C707.992 105.6 706.84 102.864 704.536 100.56C702.328 98.16 699.304 96.576 695.464 95.808L679.336 92.64C670.792 91.008 664.072 87.312 659.176 81.552C654.28 75.792 651.832 68.784 651.832 60.528C651.832 54.768 653.464 49.488 656.728 44.688C660.088 39.792 664.504 35.952 669.976 33.168C675.544 30.384 681.448 28.992 687.688 28.992C695.656 28.992 702.424 30.336 707.992 33.024C713.56 35.712 717.88 39.12 720.952 43.248C724.12 47.28 726.232 51.552 727.288 56.064L709 61.824C706.984 56.64 704.248 52.944 700.792 50.736C697.336 48.432 692.968 47.28 687.688 47.28C684.712 47.28 682.024 47.904 679.624 49.152C677.32 50.4 675.496 52.032 674.152 54.048C672.904 55.968 672.28 57.936 672.28 59.952C672.28 63.12 673.336 65.904 675.448 68.304C677.56 70.608 680.488 72.096 684.232 72.768L699.496 76.08C708.808 78.096 716.008 81.936 721.096 87.6C726.184 93.168 728.728 99.84 728.728 107.616C728.728 113.184 727.192 118.416 724.12 123.312C721.048 128.208 716.632 132.192 710.872 135.264C705.208 138.24 698.536 139.728 690.856 139.728ZM742.906 30.72H814.186V48H762.49V75.504H811.306V92.784H762.49V120.72H814.186V138H742.906V30.72ZM10.368 188.72H29.088L64.8 237.104L99.648 188.72H118.368V296H98.64V223.136L65.52 267.2H63.216L29.952 221.696V296H10.368V188.72ZM164.243 188.72H189.587L226.595 296H205.283L197.651 272.96H156.179L148.403 296H127.235L164.243 188.72ZM192.035 255.68L176.915 210.464L161.795 255.68H192.035ZM462.792 188.72H478.056L529.176 257.552V188.72H548.76V296H533.352L482.376 225.872V296H462.792V188.72ZM566.647 188.72H637.927V206H586.231V233.504H635.047V250.784H586.231V278.72H637.927V296H566.647V188.72ZM687.711 297.728C679.263 297.728 671.919 296.144 665.679 292.976C659.535 289.808 654.735 285.824 651.279 281.024C647.823 276.128 645.615 271.04 644.655 265.76L663.087 260.864C664.527 266.72 667.407 271.28 671.727 274.544C676.047 277.808 681.471 279.44 687.999 279.44C692.991 279.44 697.023 278.192 700.095 275.696C703.263 273.2 704.847 270.224 704.847 266.768C704.847 263.6 703.695 260.864 701.391 258.56C699.183 256.16 696.159 254.576 692.319 253.808L676.191 250.64C667.647 249.008 660.927 245.312 656.031 239.552C651.135 233.792 648.687 226.784 648.687 218.528C648.687 212.768 650.319 207.488 653.583 202.688C656.943 197.792 661.359 193.952 666.831 191.168C672.399 188.384 678.303 186.992 684.543 186.992C692.511 186.992 699.279 188.336 704.847 191.024C710.415 193.712 714.735 197.12 717.807 201.248C720.975 205.28 723.087 209.552 724.143 214.064L705.855 219.824C703.839 214.64 701.103 210.944 697.647 208.736C694.191 206.432 689.823 205.28 684.543 205.28C681.567 205.28 678.879 205.904 676.479 207.152C674.175 208.4 672.351 210.032 671.007 212.048C669.759 213.968 669.135 215.936 669.135 217.952C669.135 221.12 670.191 223.904 672.303 226.304C674.415 228.608 677.343 230.096 681.087 230.768L696.351 234.08C705.663 236.096 712.863 239.936 717.951 245.6C723.039 251.168 725.583 257.84 725.583 265.616C725.583 271.184 724.047 276.416 720.975 281.312C717.903 286.208 713.487 290.192 707.727 293.264C702.063 296.24 695.391 297.728 687.711 297.728ZM778.066 297.728C769.618 297.728 762.274 296.144 756.034 292.976C749.89 289.808 745.09 285.824 741.634 281.024C738.178 276.128 735.97 271.04 735.01 265.76L753.442 260.864C754.882 266.72 757.762 271.28 762.082 274.544C766.402 277.808 771.826 279.44 778.354 279.44C783.346 279.44 787.378 278.192 790.45 275.696C793.618 273.2 795.202 270.224 795.202 266.768C795.202 263.6 794.05 260.864 791.746 258.56C789.538 256.16 786.514 254.576 782.674 253.808L766.546 250.64C758.002 249.008 751.282 245.312 746.386 239.552C741.49 233.792 739.042 226.784 739.042 218.528C739.042 212.768 740.674 207.488 743.938 202.688C747.298 197.792 751.714 193.952 757.186 191.168C762.754 188.384 768.658 186.992 774.898 186.992C782.866 186.992 789.634 188.336 795.202 191.024C800.77 193.712 805.09 197.12 808.162 201.248C811.33 205.28 813.442 209.552 814.498 214.064L796.21 219.824C794.194 214.64 791.458 210.944 788.002 208.736C784.546 206.432 780.178 205.28 774.898 205.28C771.922 205.28 769.234 205.904 766.834 207.152C764.53 208.4 762.706 210.032 761.362 212.048C760.114 213.968 759.49 215.936 759.49 217.952C759.49 221.12 760.546 223.904 762.658 226.304C764.77 228.608 767.698 230.096 771.442 230.768L786.706 234.08C796.018 236.096 803.218 239.936 808.306 245.6C813.394 251.168 815.938 257.84 815.938 265.616C815.938 271.184 814.402 276.416 811.33 281.312C808.258 286.208 803.842 290.192 798.082 293.264C792.418 296.24 785.746 297.728 778.066 297.728Z" fill="white"/>
<path d="M398 198C420.644 198 439 216.356 439 239V247C439 269.644 420.644 288 398 288H245V198H398Z" stroke="white" stroke-width="18"/>
</svg>
